<svg version="1.0" xmlns="http://www.w3.org/2000/svg" viewBox="0 0 1280 640">
    <path d="M23 46.6C8.2 49.5 1.7 57.2.3 73-.9 86.9 3 105.7 14.4 141.5c13.4 41.8 16.8 53.3 34.6 118 10.2 36.9 23 68.5 48.1 118.8 14.9 29.9 20.9 40.7 36 66.2 17.7 29.6 29.7 44.9 49.4 62.7 31.8 28.9 68.2 50.3 109.9 64.7 29.6 10.2 49.4 13.9 80.1 14.8 38.8 1.1 75.2-4 133-18.7 34.3-8.7 47.7-11 68.5-11.7 19-.6 31.7.5 53.2 4.8 17 3.4 37.2 5.9 47.4 5.9 14.3 0 35.2 3.6 67 11.4C792.2 590.9 808.2 593 855 593c40.4 0 63.2-2.3 89.5-9 70-17.8 128.7-61.2 170.8-126.1 49-75.6 153.9-311.6 163.8-368.5 2.4-13.6-.8-23.3-9.5-29.1-7-4.8-11.4-5.7-26.6-5.6-22 0-51.6 3.9-138.5 17.9C950.6 97.3 926.4 103 805 142c-115 37-128.8 40.7-165.4 44.1-15.4 1.4-49.3.6-61.1-1.5-57.2-10-260-63.6-391.5-103.4C104.6 56.3 67 47.5 38.5 46.6c-7.1-.3-14.1-.3-15.5 0zm878.1 291.1c6.2 7 9.9 13.3 9.9 16.7 0 10.2-21.4 30.6-41.5 39.6-16.1 7.2-52.5 17.5-72.6 20.4-23.1 3.4-38.4.6-46.5-8.6-11.5-13.1-10.6-21.1 4.3-36.9 11.8-12.5 17.3-14.2 82.8-25.3 24.2-4.2 47.2-8.2 51-9 3.9-.7 7.3-1.4 7.7-1.5.3 0 2.5 2 4.9 4.6zm-512.5 18.8c18.5 2.6 96.2 17.7 103.2 20.1 20 6.7 33.9 22.5 30.3 34.3-1.6 5.6-8.5 11.4-15.8 13.4-18 5.1-46.8 1.8-82.7-9.5-36.7-11.4-53.3-20.2-63.8-33.5-9.5-12.2-13-21.3-9.2-24.3 3.7-3.2 17.3-3.3 38-.5z"/>
</svg>
